<svg width="32" height="32" viewBox="0 0 32 32" fill="none" xmlns="http://www.w3.org/2000/svg">
<path d="M15.4462 8.05918C14.6964 7.91461 13.8602 8.05917 13.1392 8.23265C12.0723 8.49286 10.5151 8.95547 9.88069 9.96741C8.92907 11.4998 10.5439 11.5287 11.3514 12.3672C14.4369 15.4608 6.01657 16.2125 4.71892 17.3112C3.4501 18.381 4.60357 19.2195 3.79614 20.4049C3.21941 21.2722 0.537595 22.3131 1.86408 23.5853C3.53661 25.1755 7.34306 23.354 8.49653 21.9662C10.1114 20.0579 12.6778 19.5664 15.2443 19.5664C16.7727 19.5664 17.2052 19.9712 18.5029 20.0868C20.1466 20.2314 21.6172 19.6242 23.0014 18.8147C25.539 17.3112 29.0859 17.9762 31.2487 15.9234C31.6524 15.5476 32.0273 15.1139 31.9984 14.5356C31.6524 13.3213 29.4608 13.5815 28.538 13.755C26.5771 14.1308 24.8469 15.2006 22.7707 14.9115C21.127 14.7091 20.3484 13.6971 21.4442 12.3093C22.194 11.3841 22.9437 10.3433 21.2423 9.85176C19.7717 9.41807 18.1568 10.2854 16.8303 9.15786C16.2824 8.69525 16.1959 8.29048 15.3885 8.117L15.4462 8.05918ZM20.2331 14.6802C20.8386 17.369 15.1001 18.5834 13.2257 18.4099C12.1011 18.2942 10.7458 17.7738 11.2648 16.4149C11.8416 14.9693 14.0043 14.1887 15.3597 13.8417C16.5996 13.5237 19.6563 13.0032 20.2331 14.6802Z" fill="white"/>
</svg>
